<?xml version="1.0" encoding="utf-8"?>
<!-- Generator: Adobe Illustrator 27.5.0, SVG Export Plug-In . SVG Version: 6.00 Build 0)  -->
<svg version="1.1" id="Livello_1" xmlns="http://www.w3.org/2000/svg" xmlns:xlink="http://www.w3.org/1999/xlink" x="0px" y="0px"
	 viewBox="0 0 483 209" style="enable-background:new 0 0 483 209;" xml:space="preserve">
<style type="text/css">
	.st0{fill:#E7CFB1;}
	.st1{fill:none;stroke:#E7CFB1;stroke-width:2;stroke-miterlimit:10;}
</style>
<g>
	<path class="st0" d="M38.2,119.8h6.9c0,0.3,0,0.6-0.1,0.9s0,0.6,0,0.9c0.1,3.4,0.9,6.3,2.6,8.5c1.7,2.2,4,3.3,7.1,3.3
		c1.6,0,3.1-0.4,4.5-1.2c1.4-0.8,2.6-2.1,3.5-3.8c0.9-1.7,1.3-3.9,1.3-6.6c0-2.5-0.5-4.9-1.6-7.3c-1.1-2.4-2.5-4.7-4.2-7.1
		c-1.7-2.3-3.6-4.6-5.6-7c-2.1-2.5-4.1-4.9-6-7.4c-2-2.5-3.6-5-4.8-7.6c-1.3-2.6-1.9-5.2-1.9-7.9c0-2.9,0.7-5.4,2.1-7.5
		c1.4-2.1,3.2-3.7,5.6-4.7c2.3-1.1,4.8-1.6,7.5-1.6c2.9,0,5.4,0.6,7.7,1.9c2.2,1.3,4,3.1,5.3,5.3c1.3,2.3,1.9,4.8,1.9,7.6h-6.6
		c0-0.3,0-0.6,0-0.9s0-0.6,0-0.9c0-3.4-0.6-6.2-1.9-8.4c-1.3-2.2-3.5-3.3-6.6-3.3c-2.1,0-4.1,0.8-5.9,2.4c-1.8,1.6-2.7,4.3-2.7,8.2
		c0,2.3,0.5,4.5,1.5,6.7c1,2.2,2.4,4.4,4,6.6c1.6,2.2,3.4,4.4,5.2,6.7c2.2,2.5,4.3,5.1,6.3,7.7s3.7,5.3,5,8c1.3,2.7,2,5.4,2,8.2
		c0,3.1-0.7,5.8-2.2,8c-1.5,2.3-3.4,4-5.8,5.3c-2.4,1.3-5.1,1.9-7.9,1.9c-3.1,0-5.8-0.6-8.3-1.9c-2.5-1.3-4.4-3.1-5.8-5.3
		S38.2,122.6,38.2,119.8z"/>
	<path class="st0" d="M93.5,84.7H75.3v-1.3h18.2V84.7z M87.6,133.7h-6.4V70.4h6.4V133.7z"/>
	<path class="st0" d="M124.9,134.7c-5,0-9.5-1.1-13.5-3.4s-7.1-5.3-9.4-9.2c-2.3-3.9-3.4-8.4-3.4-13.5c0-5.1,1.1-9.6,3.4-13.6
		c2.3-3.9,5.4-7,9.4-9.2s8.5-3.3,13.5-3.3c5,0,9.4,1.1,13.4,3.3s7.1,5.3,9.4,9.2c2.3,3.9,3.4,8.5,3.4,13.6c0,5.1-1.1,9.6-3.4,13.5
		s-5.4,7-9.4,9.2S129.9,134.7,124.9,134.7z M124.9,133.4c3.7,0,7.1-1,10-3.1c3-2.1,5.3-5,7.1-8.7c1.7-3.7,2.6-8.1,2.6-13.1
		c0-4.9-0.8-9.2-2.5-13c-1.7-3.7-4-6.7-7-8.7c-3-2.1-6.4-3.1-10.1-3.1c-3.8,0-7.1,1-10.1,3.1c-2.9,2.1-5.3,4.9-7.1,8.6
		c-1.8,3.7-2.6,8.1-2.6,13.1c0,4.8,0.9,9.1,2.6,12.9c1.7,3.7,4.1,6.7,7.1,8.8S121.1,133.4,124.9,133.4z"/>
	<path class="st0" d="M160.7,83.4h6.3v50.3h-6.3V83.4z M190.7,95.7h-6.4c0-3.2-0.8-5.8-2.5-8c-1.7-2.1-3.7-3.2-6.1-3.2
		c-2.4,0-4.4,1-6.2,3.1c-1.7,2.1-2.6,4.7-2.6,7.9v2.3h-1.2c0-0.4,0-0.8,0-1.1c0-0.4,0-0.7,0-1.1c0.1-3.8,1.3-7,3.6-9.5
		c2.3-2.5,5.2-3.7,8.8-3.7c3.7,0,6.7,1.2,9,3.7C189.5,88.6,190.7,91.8,190.7,95.7z"/>
	<path class="st0" d="M194.5,83.4h6.5l15.7,42.2l-2.9,9L194.5,83.4z M231.3,83.4l-25.2,75.4h-1.4l25.2-75.4H231.3z"/>
	<path class="st0" d="M253.6,84.7h-18.2v-1.3h18.2V84.7z M247.8,133.7h-6.4V70.4h6.4V133.7z"/>
	<path class="st0" d="M303.9,116.1h6.4c-1,3.7-2.7,7-5.1,9.7c-2.4,2.8-5.4,5-8.8,6.5c-3.4,1.6-7.2,2.3-11.3,2.3
		c-5,0-9.5-1.1-13.5-3.4s-7.1-5.3-9.4-9.2c-2.3-3.9-3.4-8.4-3.4-13.5c0-5.1,1.1-9.6,3.4-13.6c2.3-3.9,5.4-7,9.4-9.2
		s8.5-3.3,13.5-3.3c4.1,0,7.9,0.8,11.3,2.3c3.4,1.5,6.4,3.7,8.8,6.4c2.4,2.8,4.1,6,5.1,9.8h-6.4c-0.8-3.3-2.1-6.3-3.9-8.8
		c-1.8-2.6-4-4.6-6.5-6.1c-2.6-1.5-5.4-2.2-8.5-2.2c-3.8,0-7.1,1-10.1,3.1c-2.9,2.1-5.3,4.9-7.1,8.6c-1.8,3.7-2.6,8.1-2.6,13.1
		c0,4.8,0.9,9.1,2.6,12.9s4.1,6.7,7.1,8.8c3,2.1,6.4,3.2,10.1,3.2c4.6,0,8.6-1.6,12-4.7C300.5,125.6,302.8,121.4,303.9,116.1z
		 M263.5,100.9v-1.3h43.4v1.3H263.5z"/>
	<path class="st0" d="M326.1,133.7h-6.4V58.2h6.4V133.7z"/>
	<path class="st0" d="M344.1,133.7h-6.4V58.2h6.4V133.7z"/>
	<path class="st0" d="M398.9,116.1h6.4c-1,3.7-2.7,7-5.1,9.7c-2.4,2.8-5.4,5-8.8,6.5c-3.4,1.6-7.2,2.3-11.3,2.3
		c-5,0-9.5-1.1-13.5-3.4s-7.1-5.3-9.4-9.2c-2.3-3.9-3.4-8.4-3.4-13.5c0-5.1,1.1-9.6,3.4-13.6c2.3-3.9,5.4-7,9.4-9.2
		s8.5-3.3,13.5-3.3c4.1,0,7.9,0.8,11.3,2.3c3.4,1.5,6.4,3.7,8.8,6.4c2.4,2.8,4.1,6,5.1,9.8h-6.4c-0.8-3.3-2.1-6.3-3.9-8.8
		c-1.8-2.6-4-4.6-6.5-6.1c-2.6-1.5-5.4-2.2-8.5-2.2c-3.8,0-7.1,1-10.1,3.1c-2.9,2.1-5.3,4.9-7.1,8.6c-1.8,3.7-2.6,8.1-2.6,13.1
		c0,4.8,0.9,9.1,2.6,12.9s4.1,6.7,7.1,8.8c3,2.1,6.4,3.2,10.1,3.2c4.6,0,8.6-1.6,12-4.7C395.5,125.6,397.7,121.4,398.9,116.1z
		 M358.4,100.9v-1.3h43.4v1.3H358.4z"/>
	<path class="st0" d="M414.8,83.4h6.3v50.3h-6.3V83.4z M444.8,95.7h-6.4c0-3.2-0.8-5.8-2.5-8c-1.7-2.1-3.7-3.2-6.1-3.2
		c-2.4,0-4.4,1-6.2,3.1s-2.6,4.7-2.6,7.9v2.3h-1.2c0-0.4,0-0.8,0-1.1c0-0.4,0-0.7,0-1.1c0.1-3.8,1.3-7,3.6-9.5
		c2.3-2.5,5.2-3.7,8.8-3.7c3.7,0,6.7,1.2,9,3.7C443.6,88.6,444.8,91.8,444.8,95.7z"/>
</g>
<g>
	<polyline class="st1" points="9.5,53 9.5,16 63.5,16 	"/>
	<polyline class="st1" points="473.5,156 473.5,193 419.5,193 	"/>
	<polyline class="st1" points="473.5,53 473.5,16 419.5,16 	"/>
	<polyline class="st1" points="9.5,156 9.5,193 63.5,193 	"/>
</g>
</svg>
